<svg width="250" height="250" viewBox="0 0 250 250" fill="none" xmlns="http://www.w3.org/2000/svg">
<rect width="250" height="250" fill="#050101" fill-opacity="0.15"/>
<rect x="41" y="102" width="162" height="45" rx="10" fill="white"/>
<path d="M72.0568 129V120.273H75.0057C75.6903 120.273 76.25 120.396 76.6847 120.643C77.1222 120.888 77.446 121.219 77.6562 121.636C77.8665 122.054 77.9716 122.52 77.9716 123.034C77.9716 123.548 77.8665 124.016 77.6562 124.436C77.4489 124.857 77.1278 125.192 76.6932 125.442C76.2585 125.689 75.7017 125.812 75.0227 125.812H72.9091V124.875H74.9886C75.4574 124.875 75.8338 124.794 76.1179 124.632C76.402 124.47 76.608 124.251 76.7358 123.976C76.8665 123.697 76.9318 123.384 76.9318 123.034C76.9318 122.685 76.8665 122.372 76.7358 122.097C76.608 121.821 76.4006 121.605 76.1136 121.449C75.8267 121.29 75.446 121.21 74.9716 121.21H73.1136V129H72.0568ZM79.5376 129V122.455H80.5092V123.443H80.5774C80.6967 123.119 80.9126 122.857 81.2251 122.655C81.5376 122.453 81.8899 122.352 82.282 122.352C82.3558 122.352 82.4482 122.354 82.5589 122.357C82.6697 122.359 82.7536 122.364 82.8104 122.369V123.392C82.7763 123.384 82.6982 123.371 82.576 123.354C82.4567 123.334 82.3303 123.324 82.1967 123.324C81.8786 123.324 81.5945 123.391 81.3445 123.524C81.0973 123.655 80.9013 123.837 80.7564 124.07C80.6143 124.3 80.5433 124.562 80.5433 124.858V129H79.5376ZM86.4624 129.136C85.8714 129.136 85.353 128.996 84.907 128.714C84.4638 128.433 84.1172 128.04 83.8672 127.534C83.62 127.028 83.4964 126.437 83.4964 125.761C83.4964 125.08 83.62 124.484 83.8672 123.976C84.1172 123.467 84.4638 123.072 84.907 122.791C85.353 122.51 85.8714 122.369 86.4624 122.369C87.0533 122.369 87.5703 122.51 88.0135 122.791C88.4595 123.072 88.8061 123.467 89.0533 123.976C89.3033 124.484 89.4283 125.08 89.4283 125.761C89.4283 126.437 89.3033 127.028 89.0533 127.534C88.8061 128.04 88.4595 128.433 88.0135 128.714C87.5703 128.996 87.0533 129.136 86.4624 129.136ZM86.4624 128.233C86.9112 128.233 87.2805 128.118 87.5703 127.888C87.8601 127.658 88.0746 127.355 88.2138 126.98C88.353 126.605 88.4226 126.199 88.4226 125.761C88.4226 125.324 88.353 124.916 88.2138 124.538C88.0746 124.161 87.8601 123.855 87.5703 123.622C87.2805 123.389 86.9112 123.273 86.4624 123.273C86.0135 123.273 85.6442 123.389 85.3544 123.622C85.0646 123.855 84.8501 124.161 84.7109 124.538C84.5717 124.916 84.5021 125.324 84.5021 125.761C84.5021 126.199 84.5717 126.605 84.7109 126.98C84.8501 127.355 85.0646 127.658 85.3544 127.888C85.6442 128.118 86.0135 128.233 86.4624 128.233ZM90.9634 122.455H91.9691V129.477C91.9691 129.881 91.8995 130.23 91.7603 130.526C91.6239 130.821 91.4165 131.05 91.1381 131.212C90.8626 131.374 90.5146 131.455 90.0941 131.455C90.06 131.455 90.0259 131.455 89.9918 131.455C89.9577 131.455 89.9237 131.455 89.8896 131.455V130.517C89.9237 130.517 89.9549 130.517 89.9833 130.517C90.0117 130.517 90.043 130.517 90.0771 130.517C90.3839 130.517 90.6083 130.426 90.7504 130.244C90.8924 130.065 90.9634 129.81 90.9634 129.477V122.455ZM91.4577 121.364C91.2617 121.364 91.0927 121.297 90.9506 121.163C90.8114 121.03 90.7418 120.869 90.7418 120.682C90.7418 120.494 90.8114 120.334 90.9506 120.2C91.0927 120.067 91.2617 120 91.4577 120C91.6538 120 91.8214 120.067 91.9606 120.2C92.1026 120.334 92.1737 120.494 92.1737 120.682C92.1737 120.869 92.1026 121.03 91.9606 121.163C91.8214 121.297 91.6538 121.364 91.4577 121.364ZM96.5554 129.136C95.9247 129.136 95.3807 128.997 94.9233 128.719C94.4688 128.438 94.1179 128.045 93.8707 127.543C93.6264 127.037 93.5043 126.449 93.5043 125.778C93.5043 125.108 93.6264 124.517 93.8707 124.006C94.1179 123.491 94.4616 123.091 94.902 122.804C95.3452 122.514 95.8622 122.369 96.4531 122.369C96.794 122.369 97.1307 122.426 97.4631 122.54C97.7955 122.653 98.098 122.838 98.3707 123.094C98.6435 123.347 98.8608 123.682 99.0227 124.099C99.1847 124.517 99.2656 125.031 99.2656 125.642V126.068H94.2202V125.199H98.2429C98.2429 124.83 98.169 124.5 98.0213 124.21C97.8764 123.92 97.669 123.692 97.3991 123.524C97.1321 123.357 96.8168 123.273 96.4531 123.273C96.0526 123.273 95.706 123.372 95.4134 123.571C95.1236 123.767 94.9006 124.023 94.7443 124.338C94.5881 124.653 94.5099 124.991 94.5099 125.352V125.932C94.5099 126.426 94.5952 126.845 94.7656 127.189C94.9389 127.53 95.179 127.79 95.4858 127.969C95.7926 128.145 96.1491 128.233 96.5554 128.233C96.8196 128.233 97.0582 128.196 97.2713 128.122C97.4872 128.045 97.6733 127.932 97.8295 127.781C97.9858 127.628 98.1065 127.437 98.1918 127.21L99.1634 127.483C99.0611 127.812 98.8892 128.102 98.6477 128.352C98.4063 128.599 98.108 128.793 97.7528 128.932C97.3977 129.068 96.9986 129.136 96.5554 129.136ZM103.642 122.455V123.307H100.25V122.455H103.642ZM101.239 120.886H102.244V127.125C102.244 127.409 102.286 127.622 102.368 127.764C102.453 127.903 102.561 127.997 102.692 128.045C102.825 128.091 102.966 128.114 103.114 128.114C103.224 128.114 103.315 128.108 103.386 128.097C103.457 128.082 103.514 128.071 103.557 128.062L103.761 128.966C103.693 128.991 103.598 129.017 103.476 129.043C103.354 129.071 103.199 129.085 103.011 129.085C102.727 129.085 102.449 129.024 102.176 128.902C101.906 128.78 101.682 128.594 101.503 128.344C101.327 128.094 101.239 127.778 101.239 127.398V120.886ZM107.744 129.136C107.153 129.136 106.634 128.996 106.188 128.714C105.745 128.433 105.398 128.04 105.148 127.534C104.901 127.028 104.778 126.437 104.778 125.761C104.778 125.08 104.901 124.484 105.148 123.976C105.398 123.467 105.745 123.072 106.188 122.791C106.634 122.51 107.153 122.369 107.744 122.369C108.335 122.369 108.852 122.51 109.295 122.791C109.741 123.072 110.087 123.467 110.335 123.976C110.585 124.484 110.71 125.08 110.71 125.761C110.71 126.437 110.585 127.028 110.335 127.534C110.087 128.04 109.741 128.433 109.295 128.714C108.852 128.996 108.335 129.136 107.744 129.136ZM107.744 128.233C108.192 128.233 108.562 128.118 108.852 127.888C109.141 127.658 109.356 127.355 109.495 126.98C109.634 126.605 109.704 126.199 109.704 125.761C109.704 125.324 109.634 124.916 109.495 124.538C109.356 124.161 109.141 123.855 108.852 123.622C108.562 123.389 108.192 123.273 107.744 123.273C107.295 123.273 106.925 123.389 106.636 123.622C106.346 123.855 106.131 124.161 105.992 124.538C105.853 124.916 105.783 125.324 105.783 125.761C105.783 126.199 105.853 126.605 105.992 126.98C106.131 127.355 106.346 127.658 106.636 127.888C106.925 128.118 107.295 128.233 107.744 128.233ZM115.756 129V120.273H120.989V121.21H116.813V124.159H120.597V125.097H116.813V129H115.756ZM124.841 129.136C124.25 129.136 123.732 128.996 123.286 128.714C122.843 128.433 122.496 128.04 122.246 127.534C121.999 127.028 121.875 126.437 121.875 125.761C121.875 125.08 121.999 124.484 122.246 123.976C122.496 123.467 122.843 123.072 123.286 122.791C123.732 122.51 124.25 122.369 124.841 122.369C125.432 122.369 125.949 122.51 126.392 122.791C126.838 123.072 127.185 123.467 127.432 123.976C127.682 124.484 127.807 125.08 127.807 125.761C127.807 126.437 127.682 127.028 127.432 127.534C127.185 128.04 126.838 128.433 126.392 128.714C125.949 128.996 125.432 129.136 124.841 129.136ZM124.841 128.233C125.29 128.233 125.659 128.118 125.949 127.888C126.239 127.658 126.453 127.355 126.593 126.98C126.732 126.605 126.801 126.199 126.801 125.761C126.801 125.324 126.732 124.916 126.593 124.538C126.453 124.161 126.239 123.855 125.949 123.622C125.659 123.389 125.29 123.273 124.841 123.273C124.392 123.273 124.023 123.389 123.733 123.622C123.444 123.855 123.229 124.161 123.09 124.538C122.951 124.916 122.881 125.324 122.881 125.761C122.881 126.199 122.951 126.605 123.09 126.98C123.229 127.355 123.444 127.658 123.733 127.888C124.023 128.118 124.392 128.233 124.841 128.233ZM129.342 129V122.455H130.314V123.443H130.382C130.501 123.119 130.717 122.857 131.03 122.655C131.342 122.453 131.695 122.352 132.087 122.352C132.161 122.352 132.253 122.354 132.364 122.357C132.474 122.359 132.558 122.364 132.615 122.369V123.392C132.581 123.384 132.503 123.371 132.381 123.354C132.261 123.334 132.135 123.324 132.001 123.324C131.683 123.324 131.399 123.391 131.149 123.524C130.902 123.655 130.706 123.837 130.561 124.07C130.419 124.3 130.348 124.562 130.348 124.858V129H129.342ZM135.733 129.153C135.319 129.153 134.942 129.075 134.604 128.919C134.266 128.76 133.998 128.531 133.799 128.233C133.6 127.932 133.5 127.568 133.5 127.142C133.5 126.767 133.574 126.463 133.722 126.23C133.87 125.994 134.067 125.81 134.314 125.676C134.561 125.543 134.834 125.443 135.132 125.378C135.434 125.31 135.736 125.256 136.04 125.216C136.438 125.165 136.76 125.126 137.007 125.101C137.257 125.072 137.439 125.026 137.553 124.96C137.669 124.895 137.728 124.781 137.728 124.619V124.585C137.728 124.165 137.613 123.838 137.382 123.605C137.155 123.372 136.81 123.256 136.347 123.256C135.867 123.256 135.49 123.361 135.218 123.571C134.945 123.781 134.753 124.006 134.642 124.244L133.688 123.903C133.858 123.506 134.086 123.196 134.37 122.974C134.657 122.75 134.969 122.594 135.307 122.506C135.648 122.415 135.983 122.369 136.313 122.369C136.523 122.369 136.765 122.395 137.037 122.446C137.313 122.494 137.578 122.595 137.834 122.749C138.093 122.902 138.307 123.134 138.478 123.443C138.648 123.753 138.733 124.168 138.733 124.688V129H137.728V128.114H137.676C137.608 128.256 137.495 128.408 137.336 128.57C137.176 128.732 136.965 128.869 136.701 128.983C136.436 129.097 136.114 129.153 135.733 129.153ZM135.887 128.25C136.284 128.25 136.62 128.172 136.892 128.016C137.168 127.859 137.375 127.658 137.515 127.411C137.657 127.163 137.728 126.903 137.728 126.631V125.71C137.685 125.761 137.591 125.808 137.446 125.851C137.304 125.891 137.14 125.926 136.952 125.957C136.767 125.986 136.587 126.011 136.411 126.034C136.238 126.054 136.097 126.071 135.989 126.085C135.728 126.119 135.483 126.175 135.256 126.251C135.032 126.325 134.85 126.437 134.711 126.588C134.574 126.736 134.506 126.937 134.506 127.193C134.506 127.543 134.635 127.807 134.894 127.986C135.155 128.162 135.486 128.25 135.887 128.25ZM146.415 129.136C145.87 129.136 145.388 128.999 144.971 128.723C144.553 128.445 144.227 128.053 143.991 127.547C143.755 127.038 143.637 126.438 143.637 125.744C143.637 125.057 143.755 124.46 143.991 123.955C144.227 123.449 144.555 123.058 144.975 122.783C145.396 122.507 145.881 122.369 146.433 122.369C146.859 122.369 147.195 122.44 147.442 122.582C147.692 122.722 147.883 122.881 148.013 123.06C148.147 123.236 148.251 123.381 148.325 123.494H148.41V120.273H149.415V129H148.444V127.994H148.325C148.251 128.114 148.146 128.264 148.009 128.446C147.873 128.625 147.678 128.786 147.425 128.928C147.173 129.067 146.836 129.136 146.415 129.136ZM146.552 128.233C146.955 128.233 147.296 128.128 147.575 127.918C147.853 127.705 148.065 127.411 148.21 127.036C148.354 126.658 148.427 126.222 148.427 125.727C148.427 125.239 148.356 124.811 148.214 124.445C148.072 124.075 147.862 123.788 147.583 123.584C147.305 123.376 146.961 123.273 146.552 123.273C146.126 123.273 145.771 123.382 145.487 123.601C145.205 123.817 144.994 124.111 144.852 124.483C144.712 124.852 144.643 125.267 144.643 125.727C144.643 126.193 144.714 126.616 144.856 126.997C145.001 127.375 145.214 127.676 145.495 127.901C145.779 128.122 146.131 128.233 146.552 128.233ZM154.056 129.136C153.465 129.136 152.947 128.996 152.501 128.714C152.058 128.433 151.711 128.04 151.461 127.534C151.214 127.028 151.09 126.437 151.09 125.761C151.09 125.08 151.214 124.484 151.461 123.976C151.711 123.467 152.058 123.072 152.501 122.791C152.947 122.51 153.465 122.369 154.056 122.369C154.647 122.369 155.164 122.51 155.607 122.791C156.053 123.072 156.4 123.467 156.647 123.976C156.897 124.484 157.022 125.08 157.022 125.761C157.022 126.437 156.897 127.028 156.647 127.534C156.4 128.04 156.053 128.433 155.607 128.714C155.164 128.996 154.647 129.136 154.056 129.136ZM154.056 128.233C154.505 128.233 154.874 128.118 155.164 127.888C155.454 127.658 155.668 127.355 155.808 126.98C155.947 126.605 156.016 126.199 156.016 125.761C156.016 125.324 155.947 124.916 155.808 124.538C155.668 124.161 155.454 123.855 155.164 123.622C154.874 123.389 154.505 123.273 154.056 123.273C153.607 123.273 153.238 123.389 152.948 123.622C152.658 123.855 152.444 124.161 152.305 124.538C152.165 124.916 152.096 125.324 152.096 125.761C152.096 126.199 152.165 126.605 152.305 126.98C152.444 127.355 152.658 127.658 152.948 127.888C153.238 128.118 153.607 128.233 154.056 128.233ZM163.858 129.153C163.444 129.153 163.067 129.075 162.729 128.919C162.391 128.76 162.123 128.531 161.924 128.233C161.725 127.932 161.625 127.568 161.625 127.142C161.625 126.767 161.699 126.463 161.847 126.23C161.995 125.994 162.192 125.81 162.439 125.676C162.686 125.543 162.959 125.443 163.257 125.378C163.559 125.31 163.861 125.256 164.165 125.216C164.563 125.165 164.885 125.126 165.132 125.101C165.382 125.072 165.564 125.026 165.678 124.96C165.794 124.895 165.853 124.781 165.853 124.619V124.585C165.853 124.165 165.738 123.838 165.507 123.605C165.28 123.372 164.935 123.256 164.472 123.256C163.992 123.256 163.615 123.361 163.343 123.571C163.07 123.781 162.878 124.006 162.767 124.244L161.813 123.903C161.983 123.506 162.211 123.196 162.495 122.974C162.782 122.75 163.094 122.594 163.432 122.506C163.773 122.415 164.108 122.369 164.438 122.369C164.648 122.369 164.89 122.395 165.162 122.446C165.438 122.494 165.703 122.595 165.959 122.749C166.218 122.902 166.432 123.134 166.603 123.443C166.773 123.753 166.858 124.168 166.858 124.688V129H165.853V128.114H165.801C165.733 128.256 165.62 128.408 165.461 128.57C165.301 128.732 165.09 128.869 164.826 128.983C164.561 129.097 164.239 129.153 163.858 129.153ZM164.012 128.25C164.409 128.25 164.745 128.172 165.017 128.016C165.293 127.859 165.5 127.658 165.64 127.411C165.782 127.163 165.853 126.903 165.853 126.631V125.71C165.81 125.761 165.716 125.808 165.571 125.851C165.429 125.891 165.265 125.926 165.077 125.957C164.892 125.986 164.712 126.011 164.536 126.034C164.363 126.054 164.222 126.071 164.114 126.085C163.853 126.119 163.608 126.175 163.381 126.251C163.157 126.325 162.975 126.437 162.836 126.588C162.699 126.736 162.631 126.937 162.631 127.193C162.631 127.543 162.76 127.807 163.019 127.986C163.28 128.162 163.611 128.25 164.012 128.25ZM168.694 129V122.455H169.665V123.443H169.734C169.853 123.119 170.069 122.857 170.381 122.655C170.694 122.453 171.046 122.352 171.438 122.352C171.512 122.352 171.604 122.354 171.715 122.357C171.826 122.359 171.91 122.364 171.967 122.369V123.392C171.933 123.384 171.854 123.371 171.732 123.354C171.613 123.334 171.487 123.324 171.353 123.324C171.035 123.324 170.751 123.391 170.501 123.524C170.254 123.655 170.058 123.837 169.913 124.07C169.771 124.3 169.7 124.562 169.7 124.858V129H168.694Z" fill="#7E7E7E"/>
</svg>
