<svg width="145" height="155" viewBox="0 0 145 155" fill="none" xmlns="http://www.w3.org/2000/svg">
<path d="M72.4113 154.729L13.1961 139.334L0 0.72876H145L131.79 139.313L72.4113 154.729V154.729Z" fill="#264DE4"/>
<path d="M120.481 130.488L131.769 12.0615H72.5V142.945L120.481 130.488V130.488Z" fill="#2965F1"/>
<path d="M30.2516 63.4686L31.8783 80.468H72.5V63.4686H30.2516ZM26.9822 29.0615L28.6323 46.0609H72.5V29.0615H26.9822V29.0615ZM72.5 107.618L72.4204 107.638L52.2042 102.526L50.9117 88.9679H32.6894L35.2323 115.66L72.4164 125.326L72.5 125.304V107.618Z" fill="#EBEBEB"/>
<path d="M114.632 63.4686L117.909 29.0615H72.4375V46.0609H98.0158L96.3641 63.4686H72.4375V80.468H94.7903L92.6827 102.515L72.4369 107.632V125.318L109.651 115.66L109.923 112.787L114.19 68.0334L114.632 63.4686V63.4686Z" fill="white"/>
</svg>
