<svg width="35" height="35" viewBox="0 0 35 35" fill="none" xmlns="http://www.w3.org/2000/svg">
<path d="M17.5 0C7.83125 0 0 8.02933 0 17.9426C0 25.8823 5.00937 32.5883 11.9656 34.9657C12.8406 35.1227 13.1687 34.5844 13.1687 34.1134C13.1687 33.6873 13.1469 32.2743 13.1469 30.7716C8.75 31.6015 7.6125 29.6726 7.2625 28.6634C7.06562 28.1475 6.2125 26.5551 5.46875 26.129C4.85625 25.7925 3.98125 24.9627 5.44688 24.9403C6.825 24.9178 7.80938 26.2411 8.1375 26.7794C9.7125 29.4932 12.2281 28.7307 13.2344 28.2597C13.3875 27.0934 13.8469 26.3084 14.35 25.8598C10.4562 25.4113 6.3875 23.8637 6.3875 17.0007C6.3875 15.0494 7.06563 13.4346 8.18125 12.1786C8.00625 11.73 7.39375 9.89088 8.35625 7.42377C8.35625 7.42377 9.82188 6.95277 13.1687 9.26289C14.5687 8.85918 16.0563 8.65732 17.5438 8.65732C19.0313 8.65732 20.5188 8.85918 21.9188 9.26289C25.2656 6.93035 26.7313 7.42377 26.7313 7.42377C27.6938 9.89088 27.0813 11.73 26.9063 12.1786C28.0219 13.4346 28.7 15.027 28.7 17.0007C28.7 23.8861 24.6094 25.4113 20.7156 25.8598C21.35 26.4205 21.8969 27.4971 21.8969 29.1792C21.8969 31.5791 21.875 33.5079 21.875 34.1134C21.875 34.5844 22.2031 35.1452 23.0781 34.9657C26.5524 33.7635 29.5714 31.4744 31.7101 28.4206C33.8487 25.3668 34.9994 21.7022 35 17.9426C35 8.02933 27.1688 0 17.5 0Z" fill="#E7E7E7"/>
</svg>
