<svg width="35" height="28" viewBox="0 0 35 28" fill="none" xmlns="http://www.w3.org/2000/svg">
<path d="M34.9999 3.42383V23.9672C34.9999 25.8618 33.4705 27.3912 31.576 27.3912H3.4239C1.52933 27.3912 0 25.8618 0 23.9672V3.42383C0 3.36299 0 3.30209 0.00758786 3.24125C0.0989156 1.49125 1.49125 0.0988473 3.24125 0.00758787C3.30209 4.07452e-09 3.36299 0 3.42383 0H31.5759C31.6367 0 31.7052 4.07452e-09 31.7661 0.00758787C33.5085 0.0989156 34.9009 1.49125 34.9922 3.23366C34.9999 3.2945 34.9999 3.36299 34.9999 3.42383Z" fill="#E7E7E7"/>
<path d="M31.7662 0.00758787C31.7052 4.07452e-09 31.6369 0 31.576 0H17.4999V27.3912H31.576C33.4705 27.3912 34.9999 25.8619 34.9999 23.9673V3.4239C34.9999 3.36306 34.9999 3.29457 34.9923 3.23366C34.901 1.49132 33.5085 0.0989156 31.7662 0.00758787Z" fill="#E7E7E7"/>
<path d="M34.9923 3.23371C34.9009 1.4913 33.5086 0.0989644 31.7662 0.00763668C26.174 5.59975 23.0337 8.74017 17.4999 14.2738C15.4007 12.1734 5.30535 2.07167 3.24132 0.00756836C1.49132 0.0988961 0.0989156 1.49123 0.00765622 3.24123C0 3.30214 0 3.36304 0 3.42388V23.9673C0 25.8619 1.52933 27.3912 3.4239 27.3912H4.56523V7.79887L15.8869 19.113C16.3283 19.5619 16.9141 19.7826 17.5 19.7826C18.0858 19.7826 18.6717 19.5619 19.1131 19.113L30.4348 7.79128V27.3912H31.5761C33.4707 27.3912 35 25.8619 35 23.9673V3.42388C34.9999 3.36304 34.9999 3.29455 34.9923 3.23371Z" fill="#FF4B26"/>
<path d="M19.1129 19.113L30.4346 7.79128V27.3912H31.576C33.4705 27.3912 34.9999 25.8619 34.9999 23.9673V3.42388C34.9999 3.36304 34.9999 3.29455 34.9923 3.23364C34.901 1.49123 33.5086 0.0988961 31.7662 0.00756836C26.1741 5.59975 23.0337 8.74017 17.4999 14.2738V19.7825C18.0858 19.7825 18.6717 19.5619 19.1129 19.113Z" fill="#D93F21"/>
</svg>
