<svg width="35" height="35" viewBox="0 0 35 35" fill="none" xmlns="http://www.w3.org/2000/svg">
<path d="M31.834 0H3.16603C1.4175 0 0 1.4175 0 3.16603V31.8339C0 33.5825 1.4175 35 3.16603 35H31.8339C33.5825 35 35 33.5825 35 31.8339V3.16603C35 1.4175 33.5825 0 31.834 0ZM10.8305 30.2213C10.8305 30.7302 10.418 31.1427 9.90912 31.1427H5.98711C5.47823 31.1427 5.06575 30.7302 5.06575 30.2213V13.7804C5.06575 13.2715 5.47823 12.859 5.98711 12.859H9.90912C10.418 12.859 10.8305 13.2715 10.8305 13.7804V30.2213ZM7.94812 11.3092C5.89035 11.3092 4.22217 9.64103 4.22217 7.58327C4.22217 5.52551 5.89035 3.85733 7.94812 3.85733C10.0059 3.85733 11.6741 5.52551 11.6741 7.58327C11.6741 9.64103 10.006 11.3092 7.94812 11.3092ZM31.3268 30.2955C31.3268 30.7634 30.9475 31.1427 30.4797 31.1427H26.2711C25.8032 31.1427 25.4239 30.7634 25.4239 30.2955V22.5838C25.4239 21.4334 25.7614 17.5426 22.4175 17.5426C19.8237 17.5426 19.2976 20.2057 19.192 21.4009V30.2955C19.192 30.7634 18.8128 31.1427 18.3449 31.1427H14.2744C13.8066 31.1427 13.4273 30.7634 13.4273 30.2955V13.7062C13.4273 13.2383 13.8066 12.859 14.2744 12.859H18.3449C18.8127 12.859 19.192 13.2383 19.192 13.7062V15.1405C20.1538 13.6972 21.5831 12.5831 24.6263 12.5831C31.3654 12.5831 31.3268 18.8791 31.3268 22.3384V30.2955Z" fill="#0077B7"/>
</svg>
