<svg width="63" height="24" viewBox="0 0 63 24" fill="none" xmlns="http://www.w3.org/2000/svg">
<g clip-path="url(#clip0_215_308)">
<path d="M16.7701 11.7868C16.8042 11.6978 16.8042 11.5992 16.7701 11.5101C16.7528 11.4723 16.725 11.4402 16.6901 11.4177C16.6552 11.3953 16.6146 11.3833 16.5731 11.3833C16.5315 11.3833 16.4909 11.3953 16.4559 11.4177C16.421 11.4402 16.3933 11.4723 16.376 11.5101C16.0014 12.2463 14.5724 14.2373 13.1385 14.3658C12.4733 14.425 12.0988 13.8717 12.0988 13.0071C12.0988 12.8342 12.0989 12.6613 12.1334 12.4884C13.922 12.9478 15.898 11.189 15.898 9.20292C15.9116 8.95953 15.8737 8.71599 15.7868 8.48829C15.6999 8.26059 15.566 8.05386 15.3939 7.88172C15.2217 7.70955 15.0152 7.57584 14.7878 7.48936C14.5605 7.40289 14.3175 7.36556 14.0748 7.37988C12.291 7.53796 10.4432 9.96378 10.2412 12.7206C9.85683 13.3085 9.374 13.9409 9.06851 13.9656C8.38357 14.0249 9.23602 11.5694 9.72875 10.0428C10.0343 9.0547 9.84701 7.75537 8.80731 7.84925C8.00905 7.91839 7.20586 8.88675 6.57515 10.028C6.7476 9.11895 6.52589 8.05179 5.58965 8.13083C4.8407 8.20001 4.0523 9.07943 3.44128 10.1663C3.52504 9.90449 3.594 9.67229 3.66299 9.49441C3.93401 8.76322 2.48535 8.26916 2.02709 9.25728C1.53434 10.359 0.37146 14.598 0.37146 15.5465C0.37146 16.6483 1.79058 16.9546 1.90883 16.1888C2.00738 15.591 2.26362 14.43 2.58883 13.2245C3.0126 11.8955 4.06705 10.1614 4.53024 10.1219C4.75199 10.1219 4.58443 10.8432 4.48097 11.2137C4.0613 12.54 3.75793 13.9005 3.57433 15.2797C3.57433 16.3815 4.99346 16.6878 5.11171 15.9171C5.19545 15.3588 5.45172 14.2472 5.74242 13.101C6.13173 11.7374 7.29457 9.87483 7.75282 9.83531C7.97457 9.83531 7.80213 10.5566 7.70356 10.9272C7.30936 12.2562 6.79687 13.8915 6.79687 14.8796C6.79687 15.6404 7.05313 16.0999 7.64936 16.0505C8.56587 15.9665 9.5612 14.7017 10.251 13.6346C10.2644 13.9273 10.339 14.214 10.4698 14.4762C10.6005 14.7383 10.7847 14.97 11.0104 15.1562C11.2361 15.3425 11.4983 15.4792 11.78 15.5575C12.0617 15.6358 12.3567 15.6539 12.6458 15.6108C14.7597 15.4131 16.2429 12.7305 16.7701 11.7868ZM14.1339 8.55571C14.3211 8.55571 14.4542 8.71383 14.4542 8.94106C14.4542 10.0972 13.2075 11.7077 12.291 11.6485C12.6803 10.0428 13.6362 8.59523 14.1339 8.55571Z" fill="#ED4343"/>
<path d="M56.3279 15.1809C55.3082 11.8708 57.1313 6.9352 57.3778 5.97674C57.6239 5.01828 55.8995 4.43532 55.2738 5.70009C55.0742 6.09957 54.8981 6.51033 54.7463 6.93027C54.9435 5.8878 54.5737 4.69718 53.3419 4.81574C52.1101 4.93431 50.7159 6.08545 49.7153 8.43711L49.3115 8.74342C48.9835 8.98493 48.6412 9.20602 48.2862 9.40547C48.7167 8.27436 48.9663 7.08218 49.0254 5.87301C49.0254 5.34929 48.7151 5.0578 48.2862 5.09733C46.7637 5.23072 46.1133 7.98754 46.1133 9.25724C46.1094 9.5546 46.163 9.84987 46.271 10.1268C45.3742 12.3352 44.3 14.1977 43.6743 14.257C43.0486 14.3163 43.7632 10.6455 44.995 6.95003C45.3104 5.9965 42.9794 5.33943 42.5309 6.66841C41.8563 8.54139 41.3805 10.4806 41.1121 12.4537C40.6194 13.18 40.0231 13.9013 39.4858 13.9359C38.6778 14.01 39.1509 12.1968 39.6388 10.4084C40.8311 6.15459 42.1518 2.63697 42.3736 1.84649C42.664 0.858389 40.7622 0.196363 40.2003 1.54018C39.8654 2.43441 38.4068 6.86602 37.5149 9.93901C37.3031 10.6603 37.0616 11.4212 36.8546 12.2117C36.3175 13.091 35.4996 14.2916 35.0068 14.3311C33.7503 14.4448 36.2584 8.25926 36.4604 7.69606C36.8202 6.7376 34.9822 6.1299 34.3071 7.38974C34.1068 7.7884 33.9274 8.1974 33.77 8.61496C33.972 7.57745 33.6173 6.38679 32.3854 6.4955C30.8382 6.63382 29.0889 8.32844 28.0837 11.93C27.9725 12.3219 27.882 12.7193 27.8127 13.1207C27.5811 13.1207 27.3495 13.1207 27.1475 13.1207L26.6251 13.1602L26.5956 13.096C26.084 12.035 25.3593 11.0914 24.467 10.3244C23.7349 9.66076 22.9595 9.0468 22.1461 8.48653C21.0177 7.6763 20.1751 7.09329 20.111 6.26823C20.104 5.69039 20.3112 5.13051 20.6925 4.69714C22.0771 2.85435 23.4864 1.95518 24.2699 1.88602C24.4191 1.85598 24.5741 1.87777 24.7093 1.94781C24.8445 2.01785 24.952 2.13197 25.0139 2.27137V2.35536C24.5212 3.72388 25.5067 4.56378 26.4922 4.51929C28.3055 4.44025 28.8031 1.9206 27.7338 0.724997C27.4658 0.450798 27.1366 0.24458 26.7732 0.123436C26.4099 0.00229201 26.023 -0.0302913 25.6446 0.0283857C25.1789 0.079335 24.7217 0.190601 24.2846 0.3594C22.165 1.19333 20.2674 2.50908 18.7412 4.20312C17.6817 5.37402 17.1939 6.29296 17.2038 7.09329C17.2038 8.29878 18.3174 9.2671 19.9927 10.7295L20.5939 11.2631C20.9684 11.604 21.3232 11.9103 21.6632 12.2067C22.1559 12.6415 22.5846 13.012 22.9443 13.3826L23.0971 13.5456L22.8704 13.5851C16.578 14.6374 14.2128 16.5494 13.5082 17.3201C11.4337 19.5236 12.8824 23.5748 18.5835 23.0659C19.6731 22.9712 20.739 22.694 21.7371 22.2458C25.0435 20.7142 26.8864 18.1007 26.9258 14.2175H27.0095C27.1967 14.173 27.4333 14.1236 27.6944 14.0792C27.522 16.2974 28.3055 17.5672 29.5078 17.4585C30.7101 17.3498 31.4787 16.3123 32.1686 15.3439V15.5662C32.1686 16.5544 32.4445 17.1719 33.228 17.1027C34.3367 17.0039 35.5242 15.5416 36.4112 14.2027C36.3592 14.5296 36.3312 14.8598 36.3274 15.1908C36.3274 16.1789 36.7512 16.7866 37.648 16.7075C38.9193 16.5939 40.1608 15.1562 41.0577 13.8272C41.1414 15.5959 42.0434 16.2974 43.2455 16.2135C44.995 16.0554 46.7883 13.3134 47.8824 10.522C48.2252 10.3882 48.5555 10.2228 48.8677 10.028C48.991 9.95877 49.1142 9.87973 49.2375 9.79576C49.1882 9.94891 49.144 10.1119 49.0994 10.2898C48.1634 13.7827 49.5232 15.8973 51.0704 15.7491C52.2185 15.6404 53.4061 14.6869 54.101 13.7729C54.0748 14.5207 54.1836 15.267 54.4211 15.9763C48.7151 18.3082 36.6181 21.0403 30.4884 19.158C29.5915 18.8813 28.9115 18.58 28.9214 19.7509C28.9214 21.5097 30.5031 22.6757 32.8141 22.6559C37.6578 22.5373 48.0597 19.7262 54.8793 16.9447C56.3084 18.4268 58.2054 18.5355 60.0876 18.1304C63.6997 17.3251 63.182 12.8786 56.3279 15.1809ZM23.7574 16.5544C22.0327 21.8506 13.5032 21.6678 15.1736 18.8171C15.9719 17.4535 21.6484 15.1216 23.8461 14.8993H23.9446V14.9981C23.9933 15.5243 23.9295 16.0549 23.7574 16.5544ZM32.4495 12.2956C31.7547 14.4201 30.8135 15.9763 30.3208 15.754C29.828 15.5317 30.0054 13.6741 30.7002 11.5496C31.395 9.42523 32.3608 7.86897 32.8289 8.05175C33.297 8.23457 33.1443 10.1317 32.4495 12.2759V12.2956ZM53.4749 10.5862C52.7999 12.7156 51.8737 14.2817 51.376 14.0792C50.8782 13.8766 51.0457 11.9992 51.7258 9.8748C52.4059 7.75037 53.3521 6.17435 53.8248 6.35717C54.2979 6.53995 54.155 8.43711 53.4749 10.5665V10.5862ZM59.7675 17.5029C59.1743 17.6164 58.5611 17.5452 58.0094 17.2988C57.458 17.0523 56.9951 16.6426 56.6829 16.1245C60.9305 14.346 62.4479 16.8854 59.7675 17.4634V17.5029Z" fill="#ED4343"/>
<path d="M60.95 0.542228C60.1717 3.50653 59.6391 5.23572 58.5994 8.35809C58.3533 9.08928 59.6391 9.58827 59.8316 9.22765C61.0701 6.63236 62.1208 3.95095 62.9754 1.20426C63.2415 0.374253 61.2505 -0.613845 60.95 0.542228Z" fill="#ED4343"/>
<path d="M58.2398 12.933C58.5947 12.876 58.9249 12.7145 59.1879 12.4691C59.4513 12.2237 59.6356 11.9054 59.7181 11.5546C59.8856 10.8481 59.4916 10.3294 58.8263 10.3886C58.4734 10.4489 58.1459 10.6109 57.8833 10.8548C57.6207 11.0987 57.4349 11.414 57.348 11.7621C57.1805 12.4686 57.5796 12.9923 58.2398 12.933Z" fill="#ED4343"/>
</g>
<defs>
<clipPath id="clip0_215_308">
<rect width="63" height="23.4783" fill="white"/>
</clipPath>
</defs>
</svg>
