<svg width="146" height="154" viewBox="0 0 146 154" fill="none" xmlns="http://www.w3.org/2000/svg">
<path d="M34.4652 40.1654H61.8136V43.9921H36.9722V72.7929H60.3322V76.6196H36.9722V108.24H62.0984V112.067H34.4652V40.1654ZM64.2635 40.1654H67.1693L80.0458 71.7859L93.2072 40.1654L111.109 0L81.6981 75.1091L96.8536 112.067H93.8339L80.0458 78.4323L66.2007 112.067H63.238L78.5074 75.1091L64.2635 40.1654ZM97.9361 43.9921V40.1654H129.102V43.9921H114.744V112.067H112.237V43.9921H97.9361ZM0.251343 40.1654H3.38501L46.5964 154L28.7392 112.067L2.87222 45.6033L2.75827 112.067H0.251343V40.1654ZM128.849 107.085C128.337 107.085 127.953 106.387 127.953 105.484C127.953 104.581 128.337 103.882 128.849 103.882C129.368 103.882 129.746 104.581 129.746 105.484C129.746 106.387 129.368 107.085 128.849 107.085ZM131.313 102.872H132.654C132.672 104.151 133.203 105.011 133.983 105.011C134.855 105.011 135.349 104.087 135.349 102.356V91.3929H136.715V102.367C136.715 105.484 135.691 107.279 133.995 107.279C132.404 107.279 131.313 105.538 131.313 102.872ZM138.501 102.732H139.855C139.971 104.205 140.788 105.14 141.965 105.14C143.062 105.14 143.867 104.14 143.867 102.765C143.867 101.582 143.355 100.873 142.19 100.389L141.056 99.9055C139.465 99.2499 138.739 97.8956 138.739 95.617C138.739 92.8546 140.02 91.0167 141.94 91.0167C143.727 91.0167 145.032 92.8546 145.111 95.4665H143.782C143.654 94.037 142.947 93.1449 141.922 93.1449C140.843 93.1449 140.123 94.0585 140.123 95.4557C140.123 96.5628 140.587 97.197 141.733 97.6699L142.703 98.0891C144.507 98.8307 145.251 100.12 145.251 102.453C145.251 105.419 143.946 107.279 141.861 107.279C139.91 107.279 138.599 105.505 138.501 102.732Z" fill="white"/>
</svg>
