<svg width="146" height="144" viewBox="0 0 146 144" fill="none" xmlns="http://www.w3.org/2000/svg">
<path d="M72.7798 143.485C70.5908 143.485 68.4168 142.984 66.4976 142.019L46.5011 131.68C43.5145 130.221 44.9718 129.705 45.9569 129.408C49.9391 128.19 50.7472 127.915 54.9978 125.807C55.4446 125.584 56.0293 125.663 56.4866 125.899L71.8488 133.86C72.4035 134.122 73.1907 134.122 73.7049 133.86L133.603 103.665C134.158 103.39 134.518 102.827 134.518 102.251V41.8868C134.518 41.2845 134.158 40.7476 133.591 40.4465L73.7169 10.2776C73.1622 9.98957 72.4275 9.98957 71.8727 10.2776L12.0106 40.4465C11.4303 40.7346 11.0615 41.2976 11.0615 41.8737V102.238C11.0615 102.814 11.4213 103.364 11.9911 103.639L28.3937 111.914C37.2997 115.803 42.7423 111.22 42.7423 106.611V47.0328C42.7423 46.1817 43.507 45.527 44.4815 45.527H52.0681C53.0127 45.527 53.7923 46.1817 53.7923 47.0328V106.637C53.7923 117.008 47.3152 122.966 36.0553 122.966C32.5918 122.966 29.8631 122.966 22.2465 119.692L6.53353 111.783C2.65027 109.819 0.251343 106.153 0.251343 102.238V41.8737C0.251343 37.9455 2.65027 34.2792 6.53353 32.3412L66.4917 2.1331C70.285 0.260645 75.3227 0.260645 79.086 2.1331L138.969 32.3543C142.837 34.3053 145.251 37.9586 145.251 41.8868V102.251C145.251 106.166 142.837 109.819 138.969 111.783L79.086 141.991C77.1669 142.96 74.9928 143.458 72.7738 143.458L72.7798 143.485ZM91.2815 101.891C65.0733 101.891 59.5783 91.3839 59.5783 82.5716C59.5783 81.7335 60.3519 81.0657 61.313 81.0657H69.0495C69.9041 81.0657 70.6238 81.6091 70.7587 82.3463C71.9282 89.2312 75.4067 92.7038 91.2546 92.7038C103.879 92.7038 109.246 90.2133 109.246 84.3668C109.246 81.0016 107.717 78.5006 88.106 76.8245C71.7033 75.4104 61.5679 72.2547 61.5679 60.7974C61.5679 50.2435 71.7633 43.9583 88.8406 43.9583C108.017 43.9583 117.523 49.7721 118.722 62.2639C118.767 62.696 118.587 63.115 118.257 63.4293C117.928 63.7304 117.463 63.9138 116.983 63.9138H109.202C108.392 63.9138 107.687 63.4162 107.522 62.7353C105.648 55.4942 101.12 53.1766 88.8107 53.1766C75.0318 53.1766 73.4275 57.3667 73.4275 60.5093C73.4275 64.3197 75.3167 65.4327 93.9084 67.5801C112.32 69.7144 121.061 72.7261 121.061 84.0263C121.061 95.4182 110.176 101.952 91.1946 101.952L91.2815 101.891Z" fill="#689F63"/>
</svg>
