<svg width="146" height="154" viewBox="0 0 146 154" fill="none" xmlns="http://www.w3.org/2000/svg">
<path fill-rule="evenodd" clip-rule="evenodd" d="M24.9393 102.409C23.7045 100.178 23.6858 97.3372 24.8912 95.0852L70.2756 10.3043C72.7999 5.58887 78.8952 6.00118 80.9172 11.0241L122.378 114.022C123.916 117.844 122.145 122.34 118.626 123.549L54.1302 145.708C51.5353 146.599 48.7393 145.404 47.2888 142.784L24.9393 102.409ZM79.8146 34.575C78.9332 32.2398 75.9492 32.5995 75.5119 35.0936L59.5496 126.113C59.213 128.032 60.782 129.671 62.42 129.112L106.981 113.878C108.282 113.433 108.952 111.788 108.414 110.361L79.8146 34.575Z" fill="white"/>
</svg>
