<svg width="153" height="154" viewBox="0 0 153 154" fill="none" xmlns="http://www.w3.org/2000/svg">
<path d="M76.5 104.816C116.541 104.816 149 92.3626 149 77.0001C149 61.6376 116.541 49.1838 76.5 49.1838C36.4594 49.1838 4 61.6376 4 77.0001C4 92.3626 36.4594 104.816 76.5 104.816Z" stroke="#61DAFB" stroke-width="6.59091"/>
<path d="M52.5268 90.9084C72.5471 125.753 99.5099 147.773 112.75 140.092C125.99 132.411 120.493 97.9368 100.473 63.0922C80.4528 28.2476 53.49 6.22736 40.2499 13.9086C27.0099 21.5898 32.5065 56.0639 52.5268 90.9084Z" stroke="#61DAFB" stroke-width="6.59091"/>
<path d="M52.5268 63.0916C32.5064 97.9363 27.0099 132.41 40.2499 140.091C53.4899 147.773 80.4528 125.752 100.473 90.9079C120.493 56.0633 125.99 21.5893 112.75 13.908C99.5099 6.2268 72.5471 28.2471 52.5268 63.0916Z" stroke="#61DAFB" stroke-width="6.59091"/>
<path d="M76.3309 90.5766C83.7931 90.5766 89.8423 84.4979 89.8423 76.9996C89.8423 69.5012 83.7931 63.4226 76.3309 63.4226C68.8688 63.4226 62.8196 69.5012 62.8196 76.9996C62.8196 84.4979 68.8688 90.5766 76.3309 90.5766Z" fill="#61DAFB"/>
</svg>
