<svg width="145" height="154" viewBox="0 0 145 154" fill="none" xmlns="http://www.w3.org/2000/svg">
<mask id="mask0_217_389" style="mask-type:alpha" maskUnits="userSpaceOnUse" x="0" y="0" width="145" height="154">
<path d="M5.60283 141.906L0.00650444 14.7909C-0.17832 10.5928 3.59779 7.03491 8.5164 6.77286L135.351 0.0153411C140.357 -0.2514 144.669 2.99214 144.982 7.26C144.994 7.4208 145 7.58187 145 7.74298V146.257C145 150.533 140.933 154 135.917 154C135.781 154 135.645 153.997 135.51 153.992L14.2718 149.35C9.55003 149.17 5.78009 145.932 5.60283 141.906Z" fill="white"/>
</mask>
<g mask="url(#mask0_217_389)">
<path d="M5.60283 141.906L0.00650444 14.7909C-0.17832 10.5928 3.59779 7.03491 8.5164 6.77286L135.351 0.0153411C140.357 -0.2514 144.669 2.99214 144.982 7.26C144.994 7.4208 145 7.58187 145 7.74298V146.257C145 150.533 140.933 154 135.917 154C135.781 154 135.645 153.997 135.51 153.992L14.2718 149.35C9.55003 149.17 5.78009 145.932 5.60283 141.906Z" fill="#FF4785"/>
<path d="M107.072 18.9291L107.938 1.16664L125.356 0L126.106 18.3178C126.133 18.9553 125.547 19.4901 124.8 19.5124C124.479 19.5219 124.166 19.4344 123.914 19.2654L117.197 14.7547L109.244 19.8972C108.648 20.2828 107.798 20.1833 107.346 19.6751C107.155 19.4611 107.058 19.1973 107.072 18.9291ZM84.7954 58.0447C84.7954 61.0571 108.598 59.6133 111.794 57.4973C111.794 36.9838 98.8815 26.2043 75.237 26.2043C51.5925 26.2043 38.3449 37.1515 38.3449 53.5724C38.3449 82.1721 83.6216 82.7195 83.6216 98.3193C83.6216 102.698 81.1062 105.298 75.5724 105.298C68.3617 105.298 65.5109 102.159 65.8463 91.4854C65.8463 89.1699 38.3449 88.448 37.5065 91.4854C35.3714 117.351 54.2756 124.812 75.9078 124.812C96.8692 124.812 113.303 115.288 113.303 98.0456C113.303 67.3933 67.3555 68.2144 67.3555 53.0251C67.3555 46.8672 72.7216 46.0462 75.9078 46.0462C79.2616 46.0462 85.2985 46.5501 84.7954 58.0447Z" fill="white"/>
</g>
</svg>
