<svg width="146" height="154" viewBox="0 0 146 154" fill="none"
  xmlns="http://www.w3.org/2000/svg">
  <path fill-rule="evenodd" clip-rule="evenodd" d="M73.5014 34C54.1664 34 42.0852 43.6093 37.2493 62.8278C44.5003 53.2185 52.9588 49.6158 62.6249 52.0167C68.1399 53.3862 72.0836 57.364 76.445 61.768C83.5539 68.9395 91.7823 77.2389 109.751 77.2389C129.083 77.2389 141.167 67.6296 146 48.4139C138.752 58.0232 130.293 61.6259 120.627 59.2222C115.109 57.8527 111.166 53.8749 106.804 49.4737C99.6954 42.2966 91.4698 34 73.5014 34ZM37.2493 77.2389C17.9171 77.2389 5.83305 86.8482 1 106.067C8.25099 96.4574 16.7095 92.8547 26.3728 95.2556C31.8906 96.6251 35.8343 100.603 40.1957 105.007C47.3046 112.178 55.5302 120.478 73.5014 120.478C92.8336 120.478 104.918 110.871 109.751 91.6528C102.5 101.262 94.0412 104.865 84.3751 102.464C78.8601 101.092 74.9164 97.1138 70.555 92.7126C63.4461 85.5412 55.2177 77.2389 37.2493 77.2389Z" fill="#38BDF8"/>
</svg>
